<svg width="85" height="85" viewBox="0 0 85 85" fill="none" xmlns="http://www.w3.org/2000/svg">
<g clip-path="url(#clip0)">
<path fill-rule="evenodd" clip-rule="evenodd" d="M16.7361 32H74.0121L73.2647 32.7474V42.5H82.5616C83.0193 42.5 83.4634 42.5578 83.8871 42.6667H49.3585V39.1797C49.3585 38.0795 48.4665 37.1875 47.3663 37.1875H43.3819C42.2817 37.1875 41.3897 38.0795 41.3897 39.1797V42.6667H6.86108C7.28479 42.5578 7.72893 42.5 8.18659 42.5H17.4835V32.7474L16.7361 32Z" fill="white"/>
<path fill-rule="evenodd" clip-rule="evenodd" d="M11.0068 74.6667L19.7413 65.9323C19.4456 65.3027 19.1764 64.6581 18.9354 64.0001H41.3897V74.6667H26.7327C26.6016 74.5648 26.4716 74.4616 26.3427 74.3571L26.0331 74.6667H11.0068ZM64.0155 74.6667H49.3585V64.0001H71.8128C71.5718 64.6581 71.3026 65.3027 71.0069 65.9323L79.7414 74.6667H64.7151L64.4055 74.3571C64.2766 74.4616 64.1466 74.5648 64.0155 74.6667Z" fill="white"/>
<path fill-rule="evenodd" clip-rule="evenodd" d="M86.9471 47.9619C86.8678 50.8556 84.4209 53.125 81.5262 53.125H72.3398V55.7812C72.3398 58.6737 71.8251 61.4456 70.8836 64.0116C70.885 64.0077 70.8864 64.0039 70.8878 64H48.4335L48.4335 42.6667H82.9621C82.9486 42.6632 82.9351 42.6598 82.9215 42.6564C82.9044 42.6522 82.8872 42.648 82.87 42.6439C85.2555 43.211 87.0178 45.3869 86.9471 47.9619ZM48.4335 74.6667V79.6875C53.9581 79.6875 59.0439 77.8124 63.092 74.6656C63.2226 74.564 63.3521 74.4612 63.4805 74.3571L63.7901 74.6667L72.5675 83.4441C74.6422 85.5186 78.0059 85.5188 80.0807 83.4441C82.1553 81.3694 82.1553 78.0058 80.0807 75.9311L78.8164 74.6667M5.93611 42.6667H40.4647L40.4647 64H18.0104C17.0716 61.4373 16.5585 58.6694 16.5585 55.7812V53.125H7.37219C4.47754 53.125 2.03063 50.8556 1.95128 47.9619C1.88142 45.4202 3.59751 43.2673 5.93611 42.6667ZM10.0819 74.6667L8.81752 75.9311C6.74299 78.0058 6.74299 81.3694 8.81752 83.4441C10.8922 85.5186 14.2559 85.5188 16.3307 83.4441L25.1081 74.6667H10.0819ZM73.0871 32H15.8111L8.81752 25.0064C6.74299 22.9317 6.74299 19.5681 8.81752 17.4934C10.8924 15.4187 14.2559 15.4187 16.3307 17.4934L25.3997 26.5625H63.4984L72.5674 17.4936C74.6422 15.4189 78.0057 15.4189 80.0806 17.4936C82.1551 19.5683 82.1551 22.9319 80.0806 25.0066L73.0871 32ZM44.6151 0C34.3461 0 26.0214 8.32469 26.0214 18.5938H63.2089C63.2089 8.32469 54.8842 0 44.6151 0Z" fill="white"/>
<path fill-rule="evenodd" clip-rule="evenodd" d="M12.4861 32H69.7621L69.0147 32.7474V42.5H78.3116C78.7693 42.5 79.2134 42.5578 79.6371 42.6667H45.1085V39.1797C45.1085 38.0795 44.2165 37.1875 43.1163 37.1875H39.1319C38.0317 37.1875 37.1397 38.0795 37.1397 39.1797V42.6667H2.61108C3.03479 42.5578 3.47893 42.5 3.93659 42.5H13.2335V32.7474L12.4861 32Z" fill="white"/>
<path fill-rule="evenodd" clip-rule="evenodd" d="M6.75684 74.6667L15.4913 65.9323C15.1956 65.3027 14.9264 64.6581 14.6854 64.0001H37.1397V74.6667H22.4827C22.3516 74.5648 22.2216 74.4616 22.0927 74.3571L21.7831 74.6667H6.75684ZM59.7655 74.6667H45.1085V64.0001H67.5628C67.3218 64.6581 67.0526 65.3027 66.7569 65.9323L75.4914 74.6667H60.4651L60.1555 74.3571C60.0266 74.4616 59.8966 74.5648 59.7655 74.6667Z" fill="white"/>
<path fill-rule="evenodd" clip-rule="evenodd" d="M82.6971 47.9619C82.6178 50.8556 80.1709 53.125 77.2762 53.125H68.0898V55.7812C68.0898 58.6737 67.5751 61.4456 66.6336 64.0116C66.635 64.0077 66.6364 64.0039 66.6378 64H44.1835L44.1835 42.6667H78.7121C78.6769 42.6576 78.6415 42.6489 78.6059 42.6406C80.9986 43.2025 82.7679 45.3819 82.6971 47.9619ZM44.1835 74.6667V79.6875C49.7081 79.6875 54.7939 77.8124 58.842 74.6656C58.9726 74.564 59.1021 74.4612 59.2305 74.3571L59.5401 74.6667L68.3175 83.4441C70.3922 85.5186 73.7559 85.5188 75.8307 83.4441C77.9053 81.3694 77.9053 78.0058 75.8307 75.9311L74.5664 74.6667M1.68611 42.6667H36.2147L36.2147 64H13.7604C12.8216 61.4373 12.3085 58.6694 12.3085 55.7812V53.125H3.12219C0.227537 53.125 -2.21937 50.8556 -2.29872 47.9619C-2.36858 45.4202 -0.652487 43.2673 1.68611 42.6667ZM5.83186 74.6667L4.56752 75.9311C2.49299 78.0058 2.49299 81.3694 4.56752 83.4441C6.64222 85.5186 10.0059 85.5188 12.0807 83.4441L20.8581 74.6667H5.83186ZM68.8371 32H11.5611L4.56752 25.0064C2.49299 22.9317 2.49299 19.5681 4.56752 17.4934C6.64238 15.4187 10.0059 15.4187 12.0807 17.4934L21.1497 26.5625H59.2484L68.3174 17.4936C70.3922 15.4189 73.7557 15.4189 75.8306 17.4936C77.9051 19.5683 77.9051 22.9319 75.8306 25.0066L68.8371 32ZM40.3651 0C30.0961 0 21.7714 8.32469 21.7714 18.5938H58.9589C58.9589 8.32469 50.6342 0 40.3651 0Z" fill="white"/>
<path fill-rule="evenodd" clip-rule="evenodd" d="M16.7361 32H74.0121L73.2647 32.7474V42.5H82.5616C83.0193 42.5 83.4634 42.5578 83.8871 42.6667H49.3585V39.1797C49.3585 38.0795 48.4665 37.1875 47.3663 37.1875H43.3819C42.2817 37.1875 41.3897 38.0795 41.3897 39.1797V42.6667H6.86108C7.28479 42.5578 7.72893 42.5 8.18659 42.5H17.4835V32.7474L16.7361 32Z" fill="#FF5ABE" style="mix-blend-mode:multiply"/>
<path fill-rule="evenodd" clip-rule="evenodd" d="M11.0068 74.6667L19.7413 65.9323C19.4456 65.3027 19.1764 64.6581 18.9354 64.0001H41.3897V74.6667H26.7327C26.6016 74.5648 26.4716 74.4616 26.3427 74.3571L26.0331 74.6667H11.0068ZM64.0155 74.6667H49.3585V64.0001H71.8128C71.5718 64.6581 71.3026 65.3027 71.0069 65.9323L79.7414 74.6667H64.7151L64.4055 74.3571C64.2766 74.4616 64.1466 74.5648 64.0155 74.6667Z" fill="#FF5ABE" style="mix-blend-mode:multiply"/>
<path fill-rule="evenodd" clip-rule="evenodd" d="M86.9471 47.9619C86.8678 50.8556 84.4209 53.125 81.5262 53.125H72.3398V55.7812C72.3398 58.6737 71.8251 61.4456 70.8836 64.0116C70.885 64.0077 70.8864 64.0039 70.8878 64H48.4335L48.4335 42.6667H82.9621C82.9486 42.6632 82.9351 42.6598 82.9215 42.6564C82.9044 42.6522 82.8872 42.648 82.87 42.6439C85.2555 43.211 87.0178 45.3869 86.9471 47.9619ZM48.4335 74.6667V79.6875C53.9581 79.6875 59.0439 77.8124 63.092 74.6656C63.2226 74.564 63.3521 74.4612 63.4805 74.3571L63.7901 74.6667L72.5675 83.4441C74.6422 85.5186 78.0059 85.5188 80.0807 83.4441C82.1553 81.3694 82.1553 78.0058 80.0807 75.9311L78.8164 74.6667M5.93611 42.6667H40.4647L40.4647 64H18.0104C17.0716 61.4373 16.5585 58.6694 16.5585 55.7812V53.125H7.37219C4.47754 53.125 2.03063 50.8556 1.95128 47.9619C1.88142 45.4202 3.59751 43.2673 5.93611 42.6667ZM10.0819 74.6667L8.81752 75.9311C6.74299 78.0058 6.74299 81.3694 8.81752 83.4441C10.8922 85.5186 14.2559 85.5188 16.3307 83.4441L25.1081 74.6667H10.0819ZM73.0871 32H15.8111L8.81752 25.0064C6.74299 22.9317 6.74299 19.5681 8.81752 17.4934C10.8924 15.4187 14.2559 15.4187 16.3307 17.4934L25.3997 26.5625H63.4984L72.5674 17.4936C74.6422 15.4189 78.0057 15.4189 80.0806 17.4936C82.1551 19.5683 82.1551 22.9319 80.0806 25.0066L73.0871 32ZM44.6151 0C34.3461 0 26.0214 8.32469 26.0214 18.5938H63.2089C63.2089 8.32469 54.8842 0 44.6151 0Z" fill="#FF5ABE" style="mix-blend-mode:multiply"/>
<path fill-rule="evenodd" clip-rule="evenodd" d="M12.4861 32H69.7621L69.0147 32.7474V42.5H78.3116C78.7693 42.5 79.2134 42.5578 79.6371 42.6667H45.1085V39.1797C45.1085 38.0795 44.2165 37.1875 43.1163 37.1875H39.1319C38.0317 37.1875 37.1397 38.0795 37.1397 39.1797V42.6667H2.61108C3.03479 42.5578 3.47893 42.5 3.93659 42.5H13.2335V32.7474L12.4861 32Z" fill="#4DE6FF" style="mix-blend-mode:multiply"/>
<path fill-rule="evenodd" clip-rule="evenodd" d="M6.75684 74.6667L15.4913 65.9323C15.1956 65.3027 14.9264 64.6581 14.6854 64.0001H37.1397V74.6667H22.4827C22.3516 74.5648 22.2216 74.4616 22.0927 74.3571L21.7831 74.6667H6.75684ZM59.7655 74.6667H45.1085V64.0001H67.5628C67.3218 64.6581 67.0526 65.3027 66.7569 65.9323L75.4914 74.6667H60.4651L60.1555 74.3571C60.0266 74.4616 59.8966 74.5648 59.7655 74.6667Z" fill="#4DE6FF" style="mix-blend-mode:multiply"/>
<path fill-rule="evenodd" clip-rule="evenodd" d="M82.6971 47.9619C82.6178 50.8556 80.1709 53.125 77.2762 53.125H68.0898V55.7812C68.0898 58.6737 67.5751 61.4456 66.6336 64.0116C66.635 64.0077 66.6364 64.0039 66.6378 64H44.1835L44.1835 42.6667H78.7121C78.6769 42.6576 78.6415 42.6489 78.6059 42.6406C80.9986 43.2025 82.7679 45.3819 82.6971 47.9619ZM44.1835 74.6667V79.6875C49.7081 79.6875 54.7939 77.8124 58.842 74.6656C58.9726 74.564 59.1021 74.4612 59.2305 74.3571L59.5401 74.6667L68.3175 83.4441C70.3922 85.5186 73.7559 85.5188 75.8307 83.4441C77.9053 81.3694 77.9053 78.0058 75.8307 75.9311L74.5664 74.6667M1.68611 42.6667H36.2147L36.2147 64H13.7604C12.8216 61.4373 12.3085 58.6694 12.3085 55.7812V53.125H3.12219C0.227537 53.125 -2.21937 50.8556 -2.29872 47.9619C-2.36858 45.4202 -0.652487 43.2673 1.68611 42.6667ZM5.83186 74.6667L4.56752 75.9311C2.49299 78.0058 2.49299 81.3694 4.56752 83.4441C6.64222 85.5186 10.0059 85.5188 12.0807 83.4441L20.8581 74.6667H5.83186ZM68.8371 32H11.5611L4.56752 25.0064C2.49299 22.9317 2.49299 19.5681 4.56752 17.4934C6.64238 15.4187 10.0059 15.4187 12.0807 17.4934L21.1497 26.5625H59.2484L68.3174 17.4936C70.3922 15.4189 73.7557 15.4189 75.8306 17.4936C77.9051 19.5683 77.9051 22.9319 75.8306 25.0066L68.8371 32ZM40.3651 0C30.0961 0 21.7714 8.32469 21.7714 18.5938H58.9589C58.9589 8.32469 50.6342 0 40.3651 0Z" fill="#4DE6FF" style="mix-blend-mode:multiply"/>
</g>
<defs>
<clipPath id="clip0">
<rect width="85" height="85" fill="white"/>
</clipPath>
</defs>
</svg>
